<?xml version="1.0" encoding="UTF-8" standalone="no"?>
<svg xmlns="http://www.w3.org/2000/svg" version="1.1" id="svg2" xml:space="preserve" width="260.54468" height="407.78665" viewBox="0 0 260.54468 407.78665">
  <defs id="defs6">
    <clipPath clipPathUnits="userSpaceOnUse" id="clipPath18">
      <path d="M 0,453.547 H 453.547 V 0 H 0 Z" id="path16" />
    </clipPath>
    <clipPath clipPathUnits="userSpaceOnUse" id="clipPath30">
      <path d="m 161.501,337.253 c 0,-13.545 6.112,-26.901 18.533,-31.487 v 0 c 0.01,-0.011 8.745,-8.093 -0.002,-20.535 v 0 c 0,0 -45.653,-83.429 33.044,-110.407 v 0 l 84.482,-22.538 33.347,-44.463 h 36.902 L 221.971,300.35 c 0,0 4.94,12.737 8.928,23.389 v 0 c 0.159,0.388 0.315,0.777 0.461,1.172 v 0 c 0.003,0.009 0.007,0.021 0.007,0.021 v 0 c 1.398,3.845 2.163,7.992 2.163,12.321 v 0 c 0,19.891 -16.124,36.014 -36.014,36.014 v 0 c -19.891,0 -36.015,-16.123 -36.015,-36.014" id="path28" />
    </clipPath>
    <clipPath clipPathUnits="userSpaceOnUse" id="clipPath46">
      <path d="M 0,453.547 H 453.547 V 0 H 0 Z" id="path44" />
    </clipPath>
  </defs>
  <g id="g10" transform="matrix(1.3333333,0,0,-1.3333333,-168.82307,504.05905)">
    <g id="g12">
      <g id="g14" clip-path="url(#clipPath18)">
        <g id="g20" transform="translate(184.2534,305.2554)">
          <path d="m 0,0 c 0,0 43.459,-26.115 -18.687,-81.674 0,0 -3.084,16.026 -0.131,29.022" style="fill:#4d4e56;fill-opacity:1;fill-rule:nonzero;stroke:none" id="path22" />
        </g>
      </g>
    </g>
    <g id="g24">
      <g id="g26" clip-path="url(#clipPath30)">
        <g id="g32" transform="translate(197.25,279.7134)">
          <path d="m 0,0 c 0,-15.487 -12.557,-28.046 -28.047,-28.046 -15.491,0 -28.047,12.559 -28.047,28.046 0,15.491 12.556,28.048 28.047,28.048 C -12.557,28.048 0,15.491 0,0" style="fill:#feaf3f;fill-opacity:1;fill-rule:nonzero;stroke:none" id="path34" />
        </g>
        <g id="g36" transform="translate(197.25,279.7134)">
          <path d="m 0,0 c 0,-15.487 -12.557,-28.046 -28.047,-28.046 -15.491,0 -28.047,12.559 -28.047,28.046 0,15.491 12.556,28.048 28.047,28.048 C -12.557,28.048 0,15.491 0,0 Z" style="fill:none;stroke:#4d4e56;stroke-width:4.00199986;stroke-linecap:round;stroke-linejoin:miter;stroke-miterlimit:10;stroke-dasharray:none;stroke-opacity:1" id="path38" />
        </g>
      </g>
    </g>
    <g id="g40">
      <g id="g42" clip-path="url(#clipPath46)">
        <g id="g48" transform="translate(140.6069,352.0151)">
          <path d="M 0,0 18.645,-13.785 22.717,1.42" style="fill:#4d4e56;fill-opacity:1;fill-rule:nonzero;stroke:none" id="path50" />
        </g>
        <g id="g52" transform="translate(140.6069,325.7798)">
          <path d="M 0,0 18.645,13.785 22.717,-1.419" style="fill:#7b7c81;fill-opacity:1;fill-rule:nonzero;stroke:none" id="path54" />
        </g>
        <g id="g56" transform="translate(211.606,218.8628)">
          <path d="M 0,0 C 0,0 29.43,-64.062 91.631,-46.728 L 70.505,-12.71" style="fill:#ff6d2e;fill-opacity:1;fill-rule:nonzero;stroke:none" id="path58" />
        </g>
        <g id="g60" transform="translate(221.0532,301.3281)">
          <path d="m 0,0 c 0,0 4.94,12.738 8.929,23.39 0.159,0.388 0.315,0.776 0.46,1.171 0.004,0.008 0.008,0.022 0.008,0.022 1.399,3.844 2.164,7.992 2.164,12.319 0,19.892 -16.125,36.015 -36.015,36.015 -19.892,0 -36.015,-16.123 -36.015,-36.015 0,-13.543 6.113,-26.899 18.533,-31.485 0.012,-0.012 8.745,-8.094 -0.002,-20.536 0,0 -45.653,-83.429 33.044,-110.407 l 56.468,-6.53 v -75.142 l 50.868,53.608 z" style="fill:none;stroke:#4d4e56;stroke-width:4.00199986;stroke-linecap:butt;stroke-linejoin:miter;stroke-miterlimit:10;stroke-dasharray:none;stroke-opacity:1" id="path62" />
        </g>
        <g id="g64" transform="translate(222.9478,367.8843)">
          <path d="M 0,0 C 0,0 0.395,0.533 1.085,1.186 1.427,1.518 1.842,1.881 2.302,2.246 2.757,2.619 3.27,2.975 3.781,3.333 4.821,4.025 5.92,4.629 6.793,5.009 7.66,5.398 8.304,5.56 8.304,5.56 8.304,5.56 7.909,5.026 7.22,4.373 6.535,3.71 5.559,2.924 4.522,2.226 3.996,1.89 3.472,1.551 2.953,1.272 2.44,0.986 1.946,0.741 1.51,0.552 0.644,0.162 0,0 0,0" style="fill:#4d4e56;fill-opacity:1;fill-rule:nonzero;stroke:none" id="path66" />
        </g>
        <g id="g68" transform="translate(220.9575,369.4473)">
          <path d="m 0,0 c 0,0 0.126,0.651 0.468,1.538 0.165,0.446 0.383,0.953 0.639,1.481 0.25,0.532 0.56,1.075 0.867,1.619 0.639,1.072 1.371,2.091 1.995,2.811 0.613,0.725 1.125,1.148 1.125,1.148 0,0 -0.125,-0.652 -0.467,-1.539 C 4.296,6.166 3.754,5.035 3.12,3.958 2.79,3.429 2.463,2.896 2.115,2.421 1.776,1.942 1.437,1.508 1.124,1.149 0.511,0.424 0,0 0,0" style="fill:#4d4e56;fill-opacity:1;fill-rule:nonzero;stroke:none" id="path70" />
        </g>
        <g id="g72" transform="translate(224.6343,365.7847)">
          <path d="m 0,0 c 0,0 0.556,0.362 1.431,0.732 0.435,0.193 0.951,0.389 1.509,0.57 0.557,0.191 1.163,0.345 1.766,0.504 1.217,0.285 2.457,0.468 3.408,0.52 0.949,0.063 1.608,-0.011 1.608,-0.011 0,0 -0.556,-0.363 -1.431,-0.734 C 7.419,1.199 6.229,0.802 5.016,0.509 4.404,0.378 3.794,0.243 3.212,0.163 2.631,0.073 2.083,0.016 1.607,-0.009 0.659,-0.072 0,0 0,0" style="fill:#4d4e56;fill-opacity:1;fill-rule:nonzero;stroke:none" id="path74" />
        </g>
        <g id="g76" transform="translate(194.3755,340.0107)">
          <path d="m 0,0 c 0,-2.458 -1.991,-4.448 -4.446,-4.448 -2.456,0 -4.447,1.99 -4.447,4.448 0,2.454 1.991,4.445 4.447,4.445 C -1.991,4.445 0,2.454 0,0" style="fill:#4d4e56;fill-opacity:1;fill-rule:nonzero;stroke:none" id="path78" />
        </g>
        <g id="g80" transform="translate(279.6548,204.0337)">
          <path d="M 0,0 24.665,-72.291" style="fill:none;stroke:#4d4e56;stroke-width:2.66799998;stroke-linecap:butt;stroke-linejoin:miter;stroke-miterlimit:10;stroke-dasharray:none;stroke-opacity:1" id="path82" />
        </g>
        <g id="g84" transform="translate(260.5542,199.3257)">
          <path d="M 0,0 28.807,-83.345" style="fill:none;stroke:#4d4e56;stroke-width:2.66799998;stroke-linecap:butt;stroke-linejoin:miter;stroke-miterlimit:10;stroke-dasharray:none;stroke-opacity:1" id="path86" />
        </g>
        <g id="g88" transform="translate(238.3921,201.8149)">
          <path d="M 0,0 7.454,-21.842" style="fill:none;stroke:#4d4e56;stroke-width:2.66799998;stroke-linecap:butt;stroke-linejoin:miter;stroke-miterlimit:10;stroke-dasharray:none;stroke-opacity:1" id="path90" />
        </g>
        <g id="g92" transform="translate(246.3462,171.7505)">
          <path d="m 0,0 v -88.847 l -10.62,-7.334" style="fill:none;stroke:#4d4e56;stroke-width:4.00199986;stroke-linecap:round;stroke-linejoin:miter;stroke-miterlimit:10;stroke-dasharray:none;stroke-opacity:1" id="path94" />
        </g>
        <g id="g96" transform="translate(255.3999,75.5698)">
          <path d="m 0,0 -9.054,7.334 v -8.67" style="fill:none;stroke:#4d4e56;stroke-width:4.00199986;stroke-linecap:round;stroke-linejoin:miter;stroke-miterlimit:10;stroke-dasharray:none;stroke-opacity:1" id="path98" />
        </g>
        <g id="g100" transform="translate(173.3359,204.064)">
          <path d="M 0,0 H -30.012" style="fill:none;stroke:#4d4e56;stroke-width:4.00199986;stroke-linecap:round;stroke-linejoin:miter;stroke-miterlimit:10;stroke-dasharray:none;stroke-opacity:1" id="path102" />
        </g>
        <g id="g104" transform="translate(144.6582,195.0093)">
          <path d="m 0,0 7.336,9.055 h -8.67" style="fill:none;stroke:#4d4e56;stroke-width:4.00199986;stroke-linecap:round;stroke-linejoin:miter;stroke-miterlimit:10;stroke-dasharray:none;stroke-opacity:1" id="path106" />
        </g>
        <g id="g108" transform="translate(151.9941,204.064)">
          <path d="M 0,0 -7.001,7.448" style="fill:none;stroke:#4d4e56;stroke-width:4.00199986;stroke-linecap:round;stroke-linejoin:miter;stroke-miterlimit:10;stroke-dasharray:none;stroke-opacity:1" id="path110" />
        </g>
        <g id="g112" transform="translate(219.1069,302.2461)">
          <path d="m 0,0 c 0,0 -33.181,-49.714 -10.059,-80.237 0.09,-0.121 0.176,-0.246 0.27,-0.369 0.279,-0.363 0.57,-0.72 0.861,-1.079 0.617,-0.771 1.255,-1.525 1.915,-2.267 0,-0.003 0,-0.003 0.003,-0.006 6.898,-7.741 15.983,-13.693 26.689,-16.758 18.15,-5.198 36.763,-0.917 50.575,9.892 L 37.434,-47.082 2.485,-0.944 C 2.182,-0.972 11.364,2.457 0,0" style="fill:#7b7c81;fill-opacity:1;fill-rule:nonzero;stroke:none" id="path114" />
        </g>
        <g id="g116" transform="translate(220.4429,302.2461)">
          <path d="m 0,0 c 0,0 -34.517,-49.714 -11.395,-80.237 0.09,-0.121 0.176,-0.246 0.27,-0.369 0.279,-0.363 0.57,-0.72 0.861,-1.079 0.618,-0.771 1.255,-1.525 1.915,-2.267 0,-0.003 0,-0.003 0.003,-0.006 6.898,-7.741 15.983,-13.693 26.689,-16.758 18.15,-5.198 36.763,-0.917 50.575,9.892 L 36.098,-47.082 1.149,-0.944 C 0.846,-0.972 13.172,2.494 0,0 Z" style="fill:none;stroke:#4d4e56;stroke-width:2.66799998;stroke-linecap:butt;stroke-linejoin:miter;stroke-miterlimit:10;stroke-dasharray:none;stroke-opacity:1" id="path118" />
        </g>
        <g id="g120" transform="translate(164.1548,353.3257)">
          <path d="m 0,0 h -25.261 l 20.562,-15.205 -20.562,-11.892 24.062,-0.425" style="fill:none;stroke:#4d4e56;stroke-width:2.66799998;stroke-linecap:butt;stroke-linejoin:miter;stroke-miterlimit:10;stroke-dasharray:none;stroke-opacity:1" id="path122" />
        </g>
        <g id="g124" transform="translate(154.6333,303.0693)">
          <path d="m 0,0 v -110.293 l 31.404,-28.79 v -87.084" style="fill:none;stroke:#4d4e56;stroke-width:6.66900015;stroke-linecap:round;stroke-linejoin:miter;stroke-miterlimit:10;stroke-dasharray:none;stroke-opacity:1" id="path126" />
        </g>
        <g id="g128" transform="translate(154.6333,256.1938)">
          <path d="M 0,0 -24.652,31.332" style="fill:none;stroke:#4d4e56;stroke-width:6.66900015;stroke-linecap:round;stroke-linejoin:miter;stroke-miterlimit:10;stroke-dasharray:none;stroke-opacity:1" id="path130" />
        </g>
        <g id="g132" transform="translate(220.1255,302.2085)">
          <path d="m 0,0 20.663,-32.019 32.017,20.66 C 23.931,33.827 0,0 0,0" style="fill:#00b7b0;fill-opacity:1;fill-rule:nonzero;stroke:none" id="path134" />
        </g>
        <g id="g136" transform="translate(269.3452,288.6172)">
          <path d="m 0,0 c 69.941,-67.226 12.766,-82.464 12.766,-82.464 l -41.323,64.037 z" style="fill:#00b7b0;fill-opacity:1;fill-rule:nonzero;stroke:none" id="path138" />
        </g>
        <g id="g140" transform="translate(224.6216,307.2534)">
          <path d="M 0,0 21.636,-33.533" style="fill:none;stroke:#4d4e56;stroke-width:1.33399999;stroke-linecap:butt;stroke-linejoin:miter;stroke-miterlimit:10;stroke-dasharray:none;stroke-opacity:1" id="path142" />
        </g>
        <g id="g144" transform="translate(272.2495,241.4614)">
          <path d="m 0,0 13.999,9.035 c 0,0 10.611,-10.313 1.191,-17.207 0,0 -10.046,-6.484 -15.19,8.172" style="fill:#4d4e56;fill-opacity:1;fill-rule:nonzero;stroke:none" id="path146" />
        </g>
        <g id="g148" transform="translate(244.5112,264.4194)">
          <path d="M 0,0 30.19,19.483" style="fill:none;stroke:#4d4e56;stroke-width:1.33399999;stroke-linecap:butt;stroke-linejoin:miter;stroke-miterlimit:10;stroke-dasharray:none;stroke-opacity:1" id="path150" />
        </g>
        <g id="g152" transform="translate(242.8921,266.9253)">
          <path d="M 0,0 30.188,19.483" style="fill:none;stroke:#ffffff;stroke-width:1.33399999;stroke-linecap:butt;stroke-linejoin:miter;stroke-miterlimit:10;stroke-dasharray:none;stroke-opacity:1" id="path154" />
        </g>
        <g id="g156" transform="translate(222.0259,305.5796)">
          <path d="M 0,0 21.639,-33.535" style="fill:none;stroke:#ffffff;stroke-width:1.33399999;stroke-linecap:butt;stroke-linejoin:miter;stroke-miterlimit:10;stroke-dasharray:none;stroke-opacity:1" id="path158" />
        </g>
        <g id="g160" transform="translate(249.9829,267.9517)">
          <path d="M 0,0 14.67,-22.735" style="fill:none;stroke:#4d4e56;stroke-width:0.667;stroke-linecap:butt;stroke-linejoin:miter;stroke-miterlimit:10;stroke-dasharray:none;stroke-opacity:1" id="path162" />
        </g>
        <g id="g164" transform="translate(268.9663,243.0454)">
          <path d="m 0,0 c 0.732,-1.136 0.405,-2.649 -0.726,-3.382 -1.137,-0.73 -2.654,-0.405 -3.383,0.73 l -2.05,3.174 c -0.731,1.133 -0.403,2.649 0.729,3.379 1.138,0.736 2.65,0.409 3.384,-0.727 z" style="fill:#ffffff;fill-opacity:1;fill-rule:nonzero;stroke:none" id="path166" />
        </g>
        <g id="g168" transform="translate(268.9663,243.0454)">
          <path d="m 0,0 c 0.732,-1.136 0.405,-2.649 -0.726,-3.382 -1.137,-0.73 -2.654,-0.405 -3.383,0.73 l -2.05,3.174 c -0.731,1.133 -0.403,2.649 0.729,3.379 1.138,0.736 2.65,0.409 3.384,-0.727 z" style="fill:none;stroke:#4d4e56;stroke-width:0.667;stroke-linecap:butt;stroke-linejoin:miter;stroke-miterlimit:10;stroke-dasharray:none;stroke-opacity:1" id="path170" />
        </g>
        <g id="g172" transform="translate(263.8325,241.98)">
          <path d="M 0,0 4.109,2.653" style="fill:#ffffff;fill-opacity:1;fill-rule:nonzero;stroke:#4d4e56;stroke-width:0.667;stroke-linecap:butt;stroke-linejoin:miter;stroke-miterlimit:10;stroke-dasharray:none;stroke-opacity:1" id="path174" />
        </g>
        <g id="g176" transform="translate(249.896,263.5776)">
          <path d="M 0,0 4.109,2.652" style="fill:none;stroke:#4d4e56;stroke-width:0.667;stroke-linecap:butt;stroke-linejoin:miter;stroke-miterlimit:10;stroke-dasharray:none;stroke-opacity:1" id="path178" />
        </g>
        <g id="g180" transform="translate(251.8481,260.5493)">
          <path d="M 0,0 4.112,2.653" style="fill:none;stroke:#4d4e56;stroke-width:0.667;stroke-linecap:butt;stroke-linejoin:miter;stroke-miterlimit:10;stroke-dasharray:none;stroke-opacity:1" id="path182" />
        </g>
        <g id="g184" transform="translate(253.8032,257.522)">
          <path d="M 0,0 4.111,2.651" style="fill:none;stroke:#4d4e56;stroke-width:0.667;stroke-linecap:butt;stroke-linejoin:miter;stroke-miterlimit:10;stroke-dasharray:none;stroke-opacity:1" id="path186" />
        </g>
        <g id="g188" transform="translate(255.7603,254.4937)">
          <path d="M 0,0 4.107,2.65" style="fill:none;stroke:#4d4e56;stroke-width:0.667;stroke-linecap:butt;stroke-linejoin:miter;stroke-miterlimit:10;stroke-dasharray:none;stroke-opacity:1" id="path190" />
        </g>
        <g id="g192" transform="translate(257.7134,251.4634)">
          <path d="M 0,0 4.112,2.652" style="fill:none;stroke:#4d4e56;stroke-width:0.667;stroke-linecap:butt;stroke-linejoin:miter;stroke-miterlimit:10;stroke-dasharray:none;stroke-opacity:1" id="path194" />
        </g>
        <g id="g196" transform="translate(259.6675,248.4341)">
          <path d="M 0,0 4.11,2.651" style="fill:none;stroke:#4d4e56;stroke-width:0.667;stroke-linecap:butt;stroke-linejoin:miter;stroke-miterlimit:10;stroke-dasharray:none;stroke-opacity:1" id="path198" />
        </g>
        <g id="g200" transform="translate(269.3452,288.6172)">
          <path d="m 0,0 c 69.941,-67.226 12.766,-82.464 12.766,-82.464 l -41.323,64.037 z" style="fill:none;stroke:#4d4e56;stroke-width:2.66799998;stroke-linecap:butt;stroke-linejoin:miter;stroke-miterlimit:10;stroke-dasharray:none;stroke-opacity:1" id="path202" />
        </g>
        <g id="g204" transform="translate(220.1255,302.2085)">
          <path d="m 0,0 20.663,-32.019 32.017,20.66 C 23.931,33.827 0,0 0,0 Z" style="fill:none;stroke:#4d4e56;stroke-width:2.66799998;stroke-linecap:butt;stroke-linejoin:miter;stroke-miterlimit:10;stroke-dasharray:none;stroke-opacity:1" id="path206" />
        </g>
        <g id="g208" transform="translate(211.606,218.8628)">
          <path d="M 0,0 C 0,0 29.43,-64.062 91.631,-46.728 L 70.505,-12.71" style="fill:none;stroke:#4d4e56;stroke-width:2.66799998;stroke-linecap:butt;stroke-linejoin:miter;stroke-miterlimit:10;stroke-dasharray:none;stroke-opacity:1" id="path210" />
        </g>
      </g>
    </g>
  </g>
</svg>