<?xml version="1.0" encoding="UTF-8" standalone="no"?>
<svg
   xmlns:osb="http://www.openswatchbook.org/uri/2009/osb"
   xmlns:dc="http://purl.org/dc/elements/1.1/"
   xmlns:cc="http://creativecommons.org/ns#"
   xmlns:rdf="http://www.w3.org/1999/02/22-rdf-syntax-ns#"
   xmlns:svg="http://www.w3.org/2000/svg"
   xmlns="http://www.w3.org/2000/svg"
   xmlns:xlink="http://www.w3.org/1999/xlink"
   viewBox="0 0 450.00001 450"
   height="450"
   width="450"
   xml:space="preserve"
   id="svg2"
   version="1.1"><metadata
     id="metadata8"><rdf:RDF><cc:Work
         rdf:about=""><dc:format>image/svg+xml</dc:format><dc:type
           rdf:resource="http://purl.org/dc/dcmitype/StillImage" /><dc:title></dc:title></cc:Work></rdf:RDF></metadata><defs
     id="defs6"><linearGradient
       osb:paint="solid"
       id="linearGradient4630"><stop
         id="stop4628"
         offset="0"
         style="stop-color:#ffffff;stop-opacity:1;" /></linearGradient><linearGradient
       osb:paint="solid"
       id="linearGradient919"><stop
         id="stop917"
         offset="0"
         style="stop-color:#ffffff;stop-opacity:1;" /></linearGradient><clipPath
       id="clipPath18"
       clipPathUnits="userSpaceOnUse"><path
         id="path16"
         d="M 0,453.547 H 453.547 V 0 H 0 Z" /></clipPath><clipPath
       id="clipPath30"
       clipPathUnits="userSpaceOnUse"><path
         id="path28"
         d="m 161.501,337.253 c 0,-13.545 6.112,-26.901 18.533,-31.487 v 0 c 0.01,-0.011 8.745,-8.093 -0.002,-20.535 v 0 c 0,0 -45.653,-83.429 33.044,-110.407 v 0 l 84.482,-22.538 33.347,-44.463 h 36.902 L 221.971,300.35 c 0,0 4.94,12.737 8.928,23.389 v 0 c 0.159,0.388 0.315,0.777 0.461,1.172 v 0 c 0.003,0.009 0.007,0.021 0.007,0.021 v 0 c 1.398,3.845 2.163,7.992 2.163,12.321 v 0 c 0,19.891 -16.124,36.014 -36.014,36.014 v 0 c -19.891,0 -36.015,-16.123 -36.015,-36.014" /></clipPath><clipPath
       id="clipPath46"
       clipPathUnits="userSpaceOnUse"><path
         id="path44"
         d="M 0,453.547 H 453.547 V 0 H 0 Z" /></clipPath><linearGradient
       gradientUnits="userSpaceOnUse"
       y2="225.37177"
       x2="447.90033"
       y1="225.37177"
       x1="2.0996704"
       id="linearGradient4632"
       xlink:href="#linearGradient4630" /></defs><circle
     r="222.90033"
     cy="225.37177"
     cx="225"
     id="path4626"
     style="fill:url(#linearGradient4632);fill-opacity:1" /><g
     transform="matrix(1.3333333,0,0,-1.3333333,-74.095417,525.16573)"
     id="g10"><g
       id="g12"><g
         clip-path="url(#clipPath18)"
         id="g14"><g
           transform="translate(184.2534,305.2554)"
           id="g20"><path
             id="path22"
             style="fill:#4d4e56;fill-opacity:1;fill-rule:nonzero;stroke:none"
             d="m 0,0 c 0,0 43.459,-26.115 -18.687,-81.674 0,0 -3.084,16.026 -0.131,29.022" /></g></g></g><g
       id="g24"><g
         clip-path="url(#clipPath30)"
         id="g26"><g
           transform="translate(197.25,279.7134)"
           id="g32"><path
             id="path34"
             style="fill:#feaf3f;fill-opacity:1;fill-rule:nonzero;stroke:none"
             d="m 0,0 c 0,-15.487 -12.557,-28.046 -28.047,-28.046 -15.491,0 -28.047,12.559 -28.047,28.046 0,15.491 12.556,28.048 28.047,28.048 C -12.557,28.048 0,15.491 0,0" /></g><g
           transform="translate(197.25,279.7134)"
           id="g36"><path
             id="path38"
             style="fill:none;stroke:#4d4e56;stroke-width:4.00199986;stroke-linecap:round;stroke-linejoin:miter;stroke-miterlimit:10;stroke-dasharray:none;stroke-opacity:1"
             d="m 0,0 c 0,-15.487 -12.557,-28.046 -28.047,-28.046 -15.491,0 -28.047,12.559 -28.047,28.046 0,15.491 12.556,28.048 28.047,28.048 C -12.557,28.048 0,15.491 0,0 Z" /></g></g></g><g
       id="g40"><g
         clip-path="url(#clipPath46)"
         id="g42"><g
           transform="translate(140.6069,352.0151)"
           id="g48"><path
             id="path50"
             style="fill:#4d4e56;fill-opacity:1;fill-rule:nonzero;stroke:none"
             d="M 0,0 18.645,-13.785 22.717,1.42" /></g><g
           transform="translate(140.6069,325.7798)"
           id="g52"><path
             id="path54"
             style="fill:#7b7c81;fill-opacity:1;fill-rule:nonzero;stroke:none"
             d="M 0,0 18.645,13.785 22.717,-1.419" /></g><g
           transform="translate(211.606,218.8628)"
           id="g56"><path
             id="path58"
             style="fill:#ff6d2e;fill-opacity:1;fill-rule:nonzero;stroke:none"
             d="M 0,0 C 0,0 29.43,-64.062 91.631,-46.728 L 70.505,-12.71" /></g><g
           transform="translate(221.0532,301.3281)"
           id="g60"><path
             id="path62"
             style="fill:none;stroke:#4d4e56;stroke-width:4.00199986;stroke-linecap:butt;stroke-linejoin:miter;stroke-miterlimit:10;stroke-dasharray:none;stroke-opacity:1"
             d="m 0,0 c 0,0 4.94,12.738 8.929,23.39 0.159,0.388 0.315,0.776 0.46,1.171 0.004,0.008 0.008,0.022 0.008,0.022 1.399,3.844 2.164,7.992 2.164,12.319 0,19.892 -16.125,36.015 -36.015,36.015 -19.892,0 -36.015,-16.123 -36.015,-36.015 0,-13.543 6.113,-26.899 18.533,-31.485 0.012,-0.012 8.745,-8.094 -0.002,-20.536 0,0 -45.653,-83.429 33.044,-110.407 l 56.468,-6.53 v -75.142 l 50.868,53.608 z" /></g><g
           transform="translate(222.9478,367.8843)"
           id="g64"><path
             id="path66"
             style="fill:#4d4e56;fill-opacity:1;fill-rule:nonzero;stroke:none"
             d="M 0,0 C 0,0 0.395,0.533 1.085,1.186 1.427,1.518 1.842,1.881 2.302,2.246 2.757,2.619 3.27,2.975 3.781,3.333 4.821,4.025 5.92,4.629 6.793,5.009 7.66,5.398 8.304,5.56 8.304,5.56 8.304,5.56 7.909,5.026 7.22,4.373 6.535,3.71 5.559,2.924 4.522,2.226 3.996,1.89 3.472,1.551 2.953,1.272 2.44,0.986 1.946,0.741 1.51,0.552 0.644,0.162 0,0 0,0" /></g><g
           transform="translate(220.9575,369.4473)"
           id="g68"><path
             id="path70"
             style="fill:#4d4e56;fill-opacity:1;fill-rule:nonzero;stroke:none"
             d="m 0,0 c 0,0 0.126,0.651 0.468,1.538 0.165,0.446 0.383,0.953 0.639,1.481 0.25,0.532 0.56,1.075 0.867,1.619 0.639,1.072 1.371,2.091 1.995,2.811 0.613,0.725 1.125,1.148 1.125,1.148 0,0 -0.125,-0.652 -0.467,-1.539 C 4.296,6.166 3.754,5.035 3.12,3.958 2.79,3.429 2.463,2.896 2.115,2.421 1.776,1.942 1.437,1.508 1.124,1.149 0.511,0.424 0,0 0,0" /></g><g
           transform="translate(224.6343,365.7847)"
           id="g72"><path
             id="path74"
             style="fill:#4d4e56;fill-opacity:1;fill-rule:nonzero;stroke:none"
             d="m 0,0 c 0,0 0.556,0.362 1.431,0.732 0.435,0.193 0.951,0.389 1.509,0.57 0.557,0.191 1.163,0.345 1.766,0.504 1.217,0.285 2.457,0.468 3.408,0.52 0.949,0.063 1.608,-0.011 1.608,-0.011 0,0 -0.556,-0.363 -1.431,-0.734 C 7.419,1.199 6.229,0.802 5.016,0.509 4.404,0.378 3.794,0.243 3.212,0.163 2.631,0.073 2.083,0.016 1.607,-0.009 0.659,-0.072 0,0 0,0" /></g><g
           transform="translate(194.3755,340.0107)"
           id="g76"><path
             id="path78"
             style="fill:#4d4e56;fill-opacity:1;fill-rule:nonzero;stroke:none"
             d="m 0,0 c 0,-2.458 -1.991,-4.448 -4.446,-4.448 -2.456,0 -4.447,1.99 -4.447,4.448 0,2.454 1.991,4.445 4.447,4.445 C -1.991,4.445 0,2.454 0,0" /></g><g
           transform="translate(279.6548,204.0337)"
           id="g80"><path
             id="path82"
             style="fill:none;stroke:#4d4e56;stroke-width:2.66799998;stroke-linecap:butt;stroke-linejoin:miter;stroke-miterlimit:10;stroke-dasharray:none;stroke-opacity:1"
             d="M 0,0 24.665,-72.291" /></g><g
           transform="translate(260.5542,199.3257)"
           id="g84"><path
             id="path86"
             style="fill:none;stroke:#4d4e56;stroke-width:2.66799998;stroke-linecap:butt;stroke-linejoin:miter;stroke-miterlimit:10;stroke-dasharray:none;stroke-opacity:1"
             d="M 0,0 28.807,-83.345" /></g><g
           transform="translate(238.3921,201.8149)"
           id="g88"><path
             id="path90"
             style="fill:none;stroke:#4d4e56;stroke-width:2.66799998;stroke-linecap:butt;stroke-linejoin:miter;stroke-miterlimit:10;stroke-dasharray:none;stroke-opacity:1"
             d="M 0,0 7.454,-21.842" /></g><g
           transform="translate(246.3462,171.7505)"
           id="g92"><path
             id="path94"
             style="fill:none;stroke:#4d4e56;stroke-width:4.00199986;stroke-linecap:round;stroke-linejoin:miter;stroke-miterlimit:10;stroke-dasharray:none;stroke-opacity:1"
             d="m 0,0 v -88.847 l -10.62,-7.334" /></g><g
           transform="translate(255.3999,75.5698)"
           id="g96"><path
             id="path98"
             style="fill:none;stroke:#4d4e56;stroke-width:4.00199986;stroke-linecap:round;stroke-linejoin:miter;stroke-miterlimit:10;stroke-dasharray:none;stroke-opacity:1"
             d="m 0,0 -9.054,7.334 v -8.67" /></g><g
           transform="translate(173.3359,204.064)"
           id="g100"><path
             id="path102"
             style="fill:none;stroke:#4d4e56;stroke-width:4.00199986;stroke-linecap:round;stroke-linejoin:miter;stroke-miterlimit:10;stroke-dasharray:none;stroke-opacity:1"
             d="M 0,0 H -30.012" /></g><g
           transform="translate(144.6582,195.0093)"
           id="g104"><path
             id="path106"
             style="fill:none;stroke:#4d4e56;stroke-width:4.00199986;stroke-linecap:round;stroke-linejoin:miter;stroke-miterlimit:10;stroke-dasharray:none;stroke-opacity:1"
             d="m 0,0 7.336,9.055 h -8.67" /></g><g
           transform="translate(151.9941,204.064)"
           id="g108"><path
             id="path110"
             style="fill:none;stroke:#4d4e56;stroke-width:4.00199986;stroke-linecap:round;stroke-linejoin:miter;stroke-miterlimit:10;stroke-dasharray:none;stroke-opacity:1"
             d="M 0,0 -7.001,7.448" /></g><g
           transform="translate(219.1069,302.2461)"
           id="g112"><path
             id="path114"
             style="fill:#7b7c81;fill-opacity:1;fill-rule:nonzero;stroke:none"
             d="m 0,0 c 0,0 -33.181,-49.714 -10.059,-80.237 0.09,-0.121 0.176,-0.246 0.27,-0.369 0.279,-0.363 0.57,-0.72 0.861,-1.079 0.617,-0.771 1.255,-1.525 1.915,-2.267 0,-0.003 0,-0.003 0.003,-0.006 6.898,-7.741 15.983,-13.693 26.689,-16.758 18.15,-5.198 36.763,-0.917 50.575,9.892 L 37.434,-47.082 2.485,-0.944 C 2.182,-0.972 11.364,2.457 0,0" /></g><g
           transform="translate(220.4429,302.2461)"
           id="g116"><path
             id="path118"
             style="fill:none;stroke:#4d4e56;stroke-width:2.66799998;stroke-linecap:butt;stroke-linejoin:miter;stroke-miterlimit:10;stroke-dasharray:none;stroke-opacity:1"
             d="m 0,0 c 0,0 -34.517,-49.714 -11.395,-80.237 0.09,-0.121 0.176,-0.246 0.27,-0.369 0.279,-0.363 0.57,-0.72 0.861,-1.079 0.618,-0.771 1.255,-1.525 1.915,-2.267 0,-0.003 0,-0.003 0.003,-0.006 6.898,-7.741 15.983,-13.693 26.689,-16.758 18.15,-5.198 36.763,-0.917 50.575,9.892 L 36.098,-47.082 1.149,-0.944 C 0.846,-0.972 13.172,2.494 0,0 Z" /></g><g
           transform="translate(164.1548,353.3257)"
           id="g120"><path
             id="path122"
             style="fill:none;stroke:#4d4e56;stroke-width:2.66799998;stroke-linecap:butt;stroke-linejoin:miter;stroke-miterlimit:10;stroke-dasharray:none;stroke-opacity:1"
             d="m 0,0 h -25.261 l 20.562,-15.205 -20.562,-11.892 24.062,-0.425" /></g><g
           transform="translate(154.6333,303.0693)"
           id="g124"><path
             id="path126"
             style="fill:none;stroke:#4d4e56;stroke-width:6.66900015;stroke-linecap:round;stroke-linejoin:miter;stroke-miterlimit:10;stroke-dasharray:none;stroke-opacity:1"
             d="m 0,0 v -110.293 l 31.404,-28.79 v -87.084" /></g><g
           transform="translate(154.6333,256.1938)"
           id="g128"><path
             id="path130"
             style="fill:none;stroke:#4d4e56;stroke-width:6.66900015;stroke-linecap:round;stroke-linejoin:miter;stroke-miterlimit:10;stroke-dasharray:none;stroke-opacity:1"
             d="M 0,0 -24.652,31.332" /></g><g
           transform="translate(220.1255,302.2085)"
           id="g132"><path
             id="path134"
             style="fill:#00b7b0;fill-opacity:1;fill-rule:nonzero;stroke:none"
             d="m 0,0 20.663,-32.019 32.017,20.66 C 23.931,33.827 0,0 0,0" /></g><g
           transform="translate(269.3452,288.6172)"
           id="g136"><path
             id="path138"
             style="fill:#00b7b0;fill-opacity:1;fill-rule:nonzero;stroke:none"
             d="m 0,0 c 69.941,-67.226 12.766,-82.464 12.766,-82.464 l -41.323,64.037 z" /></g><g
           transform="translate(224.6216,307.2534)"
           id="g140"><path
             id="path142"
             style="fill:none;stroke:#4d4e56;stroke-width:1.33399999;stroke-linecap:butt;stroke-linejoin:miter;stroke-miterlimit:10;stroke-dasharray:none;stroke-opacity:1"
             d="M 0,0 21.636,-33.533" /></g><g
           transform="translate(272.2495,241.4614)"
           id="g144"><path
             id="path146"
             style="fill:#4d4e56;fill-opacity:1;fill-rule:nonzero;stroke:none"
             d="m 0,0 13.999,9.035 c 0,0 10.611,-10.313 1.191,-17.207 0,0 -10.046,-6.484 -15.19,8.172" /></g><g
           transform="translate(244.5112,264.4194)"
           id="g148"><path
             id="path150"
             style="fill:none;stroke:#4d4e56;stroke-width:1.33399999;stroke-linecap:butt;stroke-linejoin:miter;stroke-miterlimit:10;stroke-dasharray:none;stroke-opacity:1"
             d="M 0,0 30.19,19.483" /></g><g
           transform="translate(242.8921,266.9253)"
           id="g152"><path
             id="path154"
             style="fill:none;stroke:#ffffff;stroke-width:1.33399999;stroke-linecap:butt;stroke-linejoin:miter;stroke-miterlimit:10;stroke-dasharray:none;stroke-opacity:1"
             d="M 0,0 30.188,19.483" /></g><g
           transform="translate(222.0259,305.5796)"
           id="g156"><path
             id="path158"
             style="fill:none;stroke:#ffffff;stroke-width:1.33399999;stroke-linecap:butt;stroke-linejoin:miter;stroke-miterlimit:10;stroke-dasharray:none;stroke-opacity:1"
             d="M 0,0 21.639,-33.535" /></g><g
           transform="translate(249.9829,267.9517)"
           id="g160"><path
             id="path162"
             style="fill:none;stroke:#4d4e56;stroke-width:0.667;stroke-linecap:butt;stroke-linejoin:miter;stroke-miterlimit:10;stroke-dasharray:none;stroke-opacity:1"
             d="M 0,0 14.67,-22.735" /></g><g
           transform="translate(268.9663,243.0454)"
           id="g164"><path
             id="path166"
             style="fill:#ffffff;fill-opacity:1;fill-rule:nonzero;stroke:none"
             d="m 0,0 c 0.732,-1.136 0.405,-2.649 -0.726,-3.382 -1.137,-0.73 -2.654,-0.405 -3.383,0.73 l -2.05,3.174 c -0.731,1.133 -0.403,2.649 0.729,3.379 1.138,0.736 2.65,0.409 3.384,-0.727 z" /></g><g
           transform="translate(268.9663,243.0454)"
           id="g168"><path
             id="path170"
             style="fill:none;stroke:#4d4e56;stroke-width:0.667;stroke-linecap:butt;stroke-linejoin:miter;stroke-miterlimit:10;stroke-dasharray:none;stroke-opacity:1"
             d="m 0,0 c 0.732,-1.136 0.405,-2.649 -0.726,-3.382 -1.137,-0.73 -2.654,-0.405 -3.383,0.73 l -2.05,3.174 c -0.731,1.133 -0.403,2.649 0.729,3.379 1.138,0.736 2.65,0.409 3.384,-0.727 z" /></g><g
           transform="translate(263.8325,241.98)"
           id="g172"><path
             id="path174"
             style="fill:#ffffff;fill-opacity:1;fill-rule:nonzero;stroke:#4d4e56;stroke-width:0.667;stroke-linecap:butt;stroke-linejoin:miter;stroke-miterlimit:10;stroke-dasharray:none;stroke-opacity:1"
             d="M 0,0 4.109,2.653" /></g><g
           transform="translate(249.896,263.5776)"
           id="g176"><path
             id="path178"
             style="fill:none;stroke:#4d4e56;stroke-width:0.667;stroke-linecap:butt;stroke-linejoin:miter;stroke-miterlimit:10;stroke-dasharray:none;stroke-opacity:1"
             d="M 0,0 4.109,2.652" /></g><g
           transform="translate(251.8481,260.5493)"
           id="g180"><path
             id="path182"
             style="fill:none;stroke:#4d4e56;stroke-width:0.667;stroke-linecap:butt;stroke-linejoin:miter;stroke-miterlimit:10;stroke-dasharray:none;stroke-opacity:1"
             d="M 0,0 4.112,2.653" /></g><g
           transform="translate(253.8032,257.522)"
           id="g184"><path
             id="path186"
             style="fill:none;stroke:#4d4e56;stroke-width:0.667;stroke-linecap:butt;stroke-linejoin:miter;stroke-miterlimit:10;stroke-dasharray:none;stroke-opacity:1"
             d="M 0,0 4.111,2.651" /></g><g
           transform="translate(255.7603,254.4937)"
           id="g188"><path
             id="path190"
             style="fill:none;stroke:#4d4e56;stroke-width:0.667;stroke-linecap:butt;stroke-linejoin:miter;stroke-miterlimit:10;stroke-dasharray:none;stroke-opacity:1"
             d="M 0,0 4.107,2.65" /></g><g
           transform="translate(257.7134,251.4634)"
           id="g192"><path
             id="path194"
             style="fill:none;stroke:#4d4e56;stroke-width:0.667;stroke-linecap:butt;stroke-linejoin:miter;stroke-miterlimit:10;stroke-dasharray:none;stroke-opacity:1"
             d="M 0,0 4.112,2.652" /></g><g
           transform="translate(259.6675,248.4341)"
           id="g196"><path
             id="path198"
             style="fill:none;stroke:#4d4e56;stroke-width:0.667;stroke-linecap:butt;stroke-linejoin:miter;stroke-miterlimit:10;stroke-dasharray:none;stroke-opacity:1"
             d="M 0,0 4.11,2.651" /></g><g
           transform="translate(269.3452,288.6172)"
           id="g200"><path
             id="path202"
             style="fill:none;stroke:#4d4e56;stroke-width:2.66799998;stroke-linecap:butt;stroke-linejoin:miter;stroke-miterlimit:10;stroke-dasharray:none;stroke-opacity:1"
             d="m 0,0 c 69.941,-67.226 12.766,-82.464 12.766,-82.464 l -41.323,64.037 z" /></g><g
           transform="translate(220.1255,302.2085)"
           id="g204"><path
             id="path206"
             style="fill:none;stroke:#4d4e56;stroke-width:2.66799998;stroke-linecap:butt;stroke-linejoin:miter;stroke-miterlimit:10;stroke-dasharray:none;stroke-opacity:1"
             d="m 0,0 20.663,-32.019 32.017,20.66 C 23.931,33.827 0,0 0,0 Z" /></g><g
           transform="translate(211.606,218.8628)"
           id="g208"><path
             id="path210"
             style="fill:none;stroke:#4d4e56;stroke-width:2.66799998;stroke-linecap:butt;stroke-linejoin:miter;stroke-miterlimit:10;stroke-dasharray:none;stroke-opacity:1"
             d="M 0,0 C 0,0 29.43,-64.062 91.631,-46.728 L 70.505,-12.71" /></g></g></g></g></svg>